<svg aria-hidden="true" style="width:0;height:0;position:absolute;overflow:hidden" xmlns="http://www.w3.org/2000/svg"><defs><symbol id="icon-arrow-right" viewBox="0 0 32 32"><path d="m19.414 27.414 10-10a2 2 0 0 0 0-2.828l-10-10a2 2 0 1 0-2.828 2.828L23.172 14H4a2 2 0 1 0 0 4h19.172l-6.586 6.586c-.39.39-.586.902-.586 1.414s.195 1.024.586 1.414a2 2 0 0 0 2.828 0z"/></symbol><symbol id="icon-arrow-left" viewBox="0 0 32 32"><path d="m12.586 27.414-10-10a2 2 0 0 1 0-2.828l10-10a2 2 0 1 1 2.828 2.828L8.828 14H28a2 2 0 1 1 0 4H8.828l6.586 6.586c.39.39.586.902.586 1.414s-.195 1.024-.586 1.414a2 2 0 0 1-2.828 0z"/></symbol><symbol id="icon-arrow-top" viewBox="0 0 24 24"><path d="m17.707 10.293-5-5a.999.999 0 0 0-1.414 0l-5 5a.999.999 0 1 0 1.414 1.414L12 7.414l4.293 4.293a.999.999 0 1 0 1.414-1.414zm0 7-5-5a.999.999 0 0 0-1.414 0l-5 5a.999.999 0 1 0 1.414 1.414L12 14.414l4.293 4.293a.999.999 0 1 0 1.414-1.414z"/></symbol></defs></svg>