<svg aria-hidden="true" style="position: absolute; width: 0; height: 0; overflow: hidden;" version="1.1" xmlns="http://www.w3.org/2000/svg" xmlns:xlink="http://www.w3.org/1999/xlink">
<defs>
<symbol id="search" viewBox="0 0 24 24">
<path d="M16.041 15.856c-0.034 0.026-0.067 0.055-0.099 0.087s-0.060 0.064-0.087 0.099c-1.258 1.213-2.969 1.958-4.855 1.958-1.933 0-3.682-0.782-4.95-2.050s-2.050-3.017-2.050-4.95 0.782-3.682 2.050-4.95 3.017-2.050 4.95-2.050 3.682 0.782 4.95 2.050 2.050 3.017 2.050 4.95c0 1.886-0.745 3.597-1.959 4.856zM21.707 20.293l-3.675-3.675c1.231-1.54 1.968-3.493 1.968-5.618 0-2.485-1.008-4.736-2.636-6.364s-3.879-2.636-6.364-2.636-4.736 1.008-6.364 2.636-2.636 3.879-2.636 6.364 1.008 4.736 2.636 6.364 3.879 2.636 6.364 2.636c2.125 0 4.078-0.737 5.618-1.968l3.675 3.675c0.391 0.391 1.024 0.391 1.414 0s0.391-1.024 0-1.414z"></path>
</symbol>
<symbol id="logo" viewBox="0 0 24 24">
<path  style="stroke: var(--color1, #818181)" stroke-linejoin="round" stroke-linecap="round" stroke-miterlimit="4" stroke-width="2" d="M19.82 2h-15.64c-1.204 0-2.18 0.976-2.18 2.18v15.64c0 1.204 0.976 2.18 2.18 2.18h15.64c1.204 0 2.18-0.976 2.18-2.18v-15.64c0-1.204-0.976-2.18-2.18-2.18z"></path>
<path  style="stroke: var(--color1, #818181)" stroke-linejoin="round" stroke-linecap="round" stroke-miterlimit="4" stroke-width="2" d="M7 2v20"></path>
<path  style="stroke: var(--color1, #818181)" stroke-linejoin="round" stroke-linecap="round" stroke-miterlimit="4" stroke-width="2" d="M17 2v20"></path>
<path  style="stroke: var(--color1, #818181)" stroke-linejoin="round" stroke-linecap="round" stroke-miterlimit="4" stroke-width="2" d="M2 12h20"></path>
<path  style="stroke: var(--color1, #818181)" stroke-linejoin="round" stroke-linecap="round" stroke-miterlimit="4" stroke-width="2" d="M2 7h5"></path>
<path  style="stroke: var(--color1, #818181)" stroke-linejoin="round" stroke-linecap="round" stroke-miterlimit="4" stroke-width="2" d="M2 17h5"></path>
<path  style="stroke: var(--color1, #818181)" stroke-linejoin="round" stroke-linecap="round" stroke-miterlimit="4" stroke-width="2" d="M17 17h5"></path>
<path  style="stroke: var(--color1, #818181)" stroke-linejoin="round" stroke-linecap="round" stroke-miterlimit="4" stroke-width="2" d="M17 7h5"></path>
</symbol>
<symbol id="close" viewBox="0 0 20 20">
<path d="M10 8.586l-7.071-7.071-1.414 1.414 7.071 7.071-7.071 7.071 1.414 1.414 7.071-7.071 7.071 7.071 1.414-1.414-7.071-7.071 7.071-7.071-1.414-1.414-7.071 7.071z"></path>
</symbol>
<symbol id="filter-icon" viewBox="0 0 32 32">
<path d="M3.869 2.9c-0.906 0.25-1.688 1-2 1.9-0.1 0.294-0.119 0.531-0.119 1.663 0 1.425 0.050 1.775 0.337 2.338 0.081 0.162 0.256 0.412 0.381 0.563 0.2 0.231 3.75 3.044 3.938 3.113 0.081 0.031 1.112-1.269 1.069-1.344-0.019-0.025-0.875-0.706-1.906-1.506-1.325-1.025-1.906-1.512-1.975-1.656-0.075-0.162-0.094-0.456-0.094-1.463 0-1.419 0.044-1.612 0.388-1.8 0.2-0.106 0.725-0.112 12.113-0.112s11.913 0.006 12.113 0.112c0.344 0.188 0.387 0.381 0.387 1.794 0 0.925-0.025 1.306-0.087 1.463-0.069 0.169-0.969 0.844-5.012 3.756-2.712 1.95-4.994 3.606-5.063 3.681-0.131 0.125-0.15 0.381-0.55 5.975-0.231 3.212-0.431 5.919-0.45 6.006-0.019 0.094-0.1 0.231-0.188 0.313-0.156 0.144-0.194 0.15-1.15 0.15-0.963 0-0.994-0.006-1.15-0.15-0.088-0.081-0.175-0.238-0.194-0.344-0.012-0.106-0.1-1.231-0.194-2.506-0.088-1.269-0.169-2.319-0.181-2.337-0.037-0.031-1.662 0.106-1.7 0.144-0.063 0.056 0.3 4.819 0.387 5.131 0.181 0.65 0.775 1.269 1.569 1.644 0.356 0.163 0.4 0.169 1.469 0.169h1.094l0.488-0.238c0.581-0.294 1.081-0.762 1.313-1.256 0.206-0.431 0.194-0.325 0.631-6.506 0.194-2.719 0.363-4.994 0.375-5.069 0.019-0.094 1.475-1.175 4.606-3.431 2.519-1.813 4.719-3.431 4.881-3.588 0.344-0.331 0.688-0.969 0.794-1.475 0.044-0.219 0.063-0.856 0.050-1.731l-0.019-1.394-0.212-0.431c-0.3-0.587-0.806-1.087-1.419-1.388l-0.488-0.244-11.969-0.013c-9.55-0.006-12.031 0.006-12.262 0.069z"></path>
<path d="M8.581 13.563c-0.387 0.231-0.394 0.275-0.394 2.563v2.063h-2.037c-2.231 0-2.331 0.012-2.587 0.375-0.269 0.375-0.219 0.831 0.131 1.163l0.188 0.181 4.275 0.063 0.031 2.144 0.031 2.15 0.231 0.206c0.125 0.119 0.306 0.231 0.394 0.256 0.225 0.056 0.556-0.019 0.75-0.175 0.331-0.256 0.344-0.375 0.344-2.581v-2.031h2.081c1.95 0 2.088-0.006 2.275-0.125 0.387-0.231 0.525-0.794 0.287-1.188-0.063-0.106-0.225-0.244-0.363-0.313-0.244-0.119-0.394-0.125-2.269-0.125h-2.012v-2.038c0-1.956-0.006-2.050-0.131-2.275-0.069-0.125-0.213-0.275-0.306-0.331-0.238-0.144-0.669-0.137-0.919 0.019z"></path>
</symbol>
</defs>
</svg>
